<?xml version="1.0" encoding="UTF-8"?>
<svg id="Layer_2" data-name="Layer 2" xmlns="http://www.w3.org/2000/svg" viewBox="0 0 215.9 167.41">
  <defs>
    <style>
      .cls-1 {
        fill: #6087c5;
        stroke: #6087c5;
      }

      .cls-1, .cls-2 {
        stroke-miterlimit: 10;
      }

      .cls-2 {
        fill: none;
        stroke: #00b6d2;
        stroke-width: 5px;
      }

      .cls-3 {
        fill: #00b6d3;
      }

      .cls-3, .cls-4 {
        stroke-width: 0px;
      }

      .cls-4 {
        fill: #6067af;
      }
    </style>
  </defs>
  <g id="Layer_1-2" data-name="Layer 1">
    <g>
      <g>
        <rect class="cls-2" x="36.75" y="74.56" width="23.79" height="19.57" rx="7.04" ry="7.04" transform="translate(47.31 -13.02) rotate(29.19)"/>
        <rect class="cls-3" x="2.87" y="81.54" width="70.43" height="42.6" rx="8.43" ry="8.43" transform="translate(54.99 -5.52) rotate(29.19)"/>
        <rect class="cls-4" x="19.03" y="72.43" width="5.51" height="42.6" transform="translate(48.48 1.28) rotate(29.19)"/>
        <rect class="cls-4" x="51.99" y="90.85" width="5.51" height="42.6" transform="translate(61.64 -12.46) rotate(29.19)"/>
      </g>
      <g>
        <circle class="cls-1" cx="135.42" cy="19.89" r="19.39"/>
        <rect class="cls-1" x="99" y="41.63" width="44.73" height="72.34" rx="13.31" ry="13.31" transform="translate(25.87 -30.19) rotate(15.85)"/>
        <rect class="cls-1" x="70.95" y="40.74" width="48.96" height="16.04" rx="8.02" ry="8.02" transform="translate(-5.48 12.68) rotate(-7.39)"/>
        <rect class="cls-1" x="41.39" y="54.81" width="48.96" height="16.04" rx="8.02" ry="8.02" transform="translate(-25.13 64.98) rotate(-45)"/>
        <rect class="cls-1" x="66.33" y="106.42" width="48.96" height="16.04" rx="8.02" ry="8.02" transform="translate(-53.71 135.87) rotate(-60)"/>
        <rect class="cls-1" x="46.78" y="137.34" width="48.96" height="16.04" rx="8.02" ry="8.02" transform="translate(-88.79 121.03) rotate(-55.24)"/>
        <rect class="cls-1" x="110.53" y="128.77" width="48.96" height="16.04" rx="8.02" ry="8.02" transform="translate(-50.96 185.32) rotate(-60)"/>
        <rect class="cls-1" x="106.09" y="103.72" width="48.96" height="16.04" rx="8.02" ry="8.02" transform="translate(94.49 -56.29) rotate(37.32)"/>
        <rect class="cls-1" x="141.14" y="42.37" width="48.96" height="16.04" rx="8.02" ry="8.02" transform="translate(-7.2 60.61) rotate(-20.31)"/>
        <rect class="cls-1" x="170.38" y="25.11" width="48.96" height="16.04" rx="8.02" ry="8.02" transform="translate(25.17 134.5) rotate(-40.5)"/>
      </g>
      <g>
        <polygon class="cls-4" points="128.57 52.73 137.1 44.38 125.6 41.16 128.57 52.73"/>
        <polygon class="cls-4" points="130.5 45.81 115.55 77.14 127.05 80.35 130.5 45.81"/>
        <polygon class="cls-4" points="118.52 88.7 127.05 80.35 115.55 77.14 118.52 88.7"/>
      </g>
    </g>
  </g>
</svg>