<?xml version="1.0" encoding="UTF-8"?>
<svg id="Layer_2" data-name="Layer 2" xmlns="http://www.w3.org/2000/svg" viewBox="0 0 216.4 167.41">
  <defs>
    <style>
      .cls-1, .cls-2 {
        stroke-width: 0px;
      }

      .cls-1, .cls-3 {
        fill: #231f20;
      }

      .cls-4 {
        fill: none;
        stroke-width: 5px;
      }

      .cls-4, .cls-5, .cls-3 {
        stroke: #231f20;
        stroke-miterlimit: 10;
      }

      .cls-5, .cls-2 {
        fill: #fff;
      }
    </style>
  </defs>
  <g id="Layer_1-2" data-name="Layer 1">
    <g>
      <g>
        <rect class="cls-4" x="37.25" y="74.56" width="23.79" height="19.57" rx="7.04" ry="7.04" transform="translate(47.37 -13.26) rotate(29.19)"/>
        <rect class="cls-5" x="3.37" y="81.54" width="70.43" height="42.6" rx="8.43" ry="8.43" transform="translate(55.05 -5.76) rotate(29.19)"/>
        <rect class="cls-1" x="19.53" y="72.43" width="5.51" height="42.6" transform="translate(48.54 1.03) rotate(29.19)"/>
        <rect class="cls-1" x="52.49" y="90.85" width="5.51" height="42.6" transform="translate(61.7 -12.7) rotate(29.19)"/>
      </g>
      <g>
        <circle class="cls-3" cx="135.92" cy="19.89" r="19.39"/>
        <rect class="cls-3" x="99.5" y="41.63" width="44.73" height="72.34" rx="13.31" ry="13.31" transform="translate(25.89 -30.33) rotate(15.85)"/>
        <rect class="cls-3" x="71.45" y="40.74" width="48.96" height="16.04" rx="8.02" ry="8.02" transform="translate(-5.47 12.74) rotate(-7.39)"/>
        <rect class="cls-3" x="41.89" y="54.81" width="48.96" height="16.04" rx="8.02" ry="8.02" transform="translate(-24.99 65.33) rotate(-45)"/>
        <rect class="cls-3" x="66.83" y="106.42" width="48.96" height="16.04" rx="8.02" ry="8.02" transform="translate(-53.46 136.3) rotate(-60)"/>
        <rect class="cls-3" x="47.28" y="137.34" width="48.96" height="16.04" rx="8.02" ry="8.02" transform="translate(-88.57 121.44) rotate(-55.24)"/>
        <rect class="cls-3" x="111.03" y="128.77" width="48.96" height="16.04" rx="8.02" ry="8.02" transform="translate(-50.71 185.76) rotate(-60)"/>
        <rect class="cls-3" x="106.59" y="103.72" width="48.96" height="16.04" rx="8.02" ry="8.02" transform="translate(94.59 -56.59) rotate(37.32)"/>
        <path class="cls-3" d="M146.11,49.51c.54-.38,1.14-.69,1.79-.93l30.87-11.42c4.15-1.54,8.77.58,10.31,4.74h0c1.54,4.15-.58,8.77-4.74,10.31l-30.87,11.42c-4.15,1.54-8.77-.58-10.31-4.74h0c-1.3-3.51.01-7.34,2.95-9.38"/>
        <rect class="cls-3" x="170.88" y="25.11" width="48.96" height="16.04" rx="8.02" ry="8.02" transform="translate(25.29 134.82) rotate(-40.5)"/>
      </g>
      <g>
        <polygon class="cls-2" points="129.07 52.73 137.6 44.38 126.1 41.16 129.07 52.73"/>
        <polygon class="cls-2" points="131 45.81 116.05 77.14 127.55 80.35 131 45.81"/>
        <polygon class="cls-2" points="119.08 88.61 127.61 80.25 116.11 77.04 119.08 88.61"/>
      </g>
    </g>
  </g>
</svg>